<svg xmlns="http://www.w3.org/2000/svg" xmlns:xlink="http://www.w3.org/1999/xlink" width="500" zoomAndPan="magnify" viewBox="0 0 375 374.999991" height="500" preserveAspectRatio="xMidYMid meet" version="1.0"><path fill="#c2679f" d="M 208.6875 284.324219 C 206.777344 284.082031 205 282.269531 203.550781 279.085938 L 201.339844 274.214844 L 201.453125 280.082031 C 201.65625 290.578125 192.226562 290.328125 188.347656 279.730469 C 187.160156 276.496094 185.589844 273.609375 184.859375 273.324219 C 184.125 273.039062 184.671875 275.4375 186.066406 278.660156 C 187.464844 281.882812 188.445312 285.574219 188.246094 286.863281 C 187.785156 289.878906 181.492188 291.03125 176.390625 289.035156 C 174.320312 288.226562 171.40625 288.101562 169.914062 288.753906 C 165.71875 290.589844 159.136719 289.675781 151.027344 286.132812 C 146.960938 284.351562 142.507812 283.390625 141.132812 283.992188 C 137.882812 285.414062 130.550781 281.445312 128.421875 277.109375 C 127.339844 274.910156 126.894531 274.625 127.160156 276.296875 C 127.941406 281.246094 122.832031 281.398438 118.941406 276.542969 C 115.933594 272.789062 114.734375 272.265625 111.945312 273.488281 C 108.488281 275 106.371094 274.253906 97.160156 268.292969 C 94.242188 266.40625 89.472656 264.363281 86.550781 263.753906 C 83.019531 263.015625 80.753906 261.519531 79.773438 259.28125 C 78.703125 256.835938 77.851562 256.363281 76.652344 257.546875 C 75.65625 258.53125 73.671875 258.308594 71.652344 256.992188 C 69.808594 255.789062 66.441406 254.777344 64.167969 254.742188 C 58.574219 254.660156 44.378906 250.25 43.46875 248.3125 C 43.0625 247.453125 43.589844 245.34375 44.640625 243.617188 C 46.285156 240.921875 47.15625 240.527344 50.894531 240.78125 C 53.285156 240.945312 55.988281 240.757812 56.898438 240.363281 C 57.8125 239.96875 58.820312 240.242188 59.136719 240.972656 C 59.457031 241.699219 60.910156 241.773438 62.367188 241.136719 C 63.824219 240.5 66.644531 240.613281 68.632812 241.394531 C 71.242188 242.414062 72.476562 242.230469 73.0625 240.734375 C 73.648438 239.234375 75.492188 238.710938 79.6875 238.847656 C 85.332031 239.03125 85.542969 239.207031 87.070312 244.988281 L 88.636719 250.945312 L 89.871094 244.488281 C 90.953125 238.8125 91.753906 237.746094 96.480469 235.675781 C 99.4375 234.382812 104.71875 230.933594 108.21875 228.015625 C 115.867188 221.632812 119.867188 221.789062 116.589844 228.339844 C 114.902344 231.714844 114.953125 232.230469 116.898438 231.425781 C 118.183594 230.890625 119 229.917969 118.710938 229.257812 C 117.972656 227.570312 124.429688 221.867188 129.695312 219.5625 C 132.941406 218.144531 134.390625 218.210938 135.09375 219.8125 C 135.984375 221.855469 136.152344 221.78125 137.515625 218.753906 C 139.140625 215.140625 146.546875 211.25 148.238281 213.121094 C 148.832031 213.78125 152.003906 213.1875 155.289062 211.804688 C 162.71875 208.671875 167.941406 208.339844 169.074219 210.925781 C 169.550781 212.011719 169.675781 215.546875 169.355469 218.777344 C 168.742188 224.925781 169.695312 228.886719 171.585938 228.058594 C 172.199219 227.792969 172.441406 224.851562 172.128906 221.53125 C 171.472656 214.546875 174.480469 209.03125 179.847656 207.386719 C 182.796875 206.480469 183.859375 206.921875 184.855469 209.46875 C 186.042969 212.5 186.164062 212.503906 186.835938 209.484375 C 187.230469 207.714844 188.316406 205.789062 189.257812 205.203125 C 190.195312 204.617188 191.964844 203.257812 193.191406 202.179688 C 196.304688 199.453125 200.597656 203.625 204.984375 213.648438 C 207.53125 219.472656 208.859375 221.289062 209.882812 220.335938 C 210.652344 219.617188 210.652344 217.957031 209.886719 216.652344 C 209.117188 215.347656 206.726562 211.320312 204.570312 207.707031 L 200.652344 201.136719 L 206.027344 198.785156 C 211.695312 196.304688 211.941406 196.4375 219.71875 206.207031 C 221.378906 208.296875 218.324219 202.574219 214.265625 195.992188 C 212.082031 192.449219 220.058594 186.234375 224.800781 187.785156 C 227.699219 188.734375 228.164062 188.542969 229.015625 186.054688 C 229.636719 184.242188 231.390625 182.953125 234.023438 182.378906 C 237.199219 181.683594 238.007812 180.851562 237.761719 178.53125 C 237.398438 175.09375 238.414062 174.371094 241.867188 175.605469 C 243.851562 176.316406 244.324219 176.109375 244.230469 174.574219 C 244.101562 172.46875 247.578125 170.355469 248.335938 172.082031 C 248.59375 172.671875 250.230469 173.90625 251.976562 174.824219 C 254.847656 176.335938 254.777344 176.175781 251.265625 173.171875 C 245.757812 168.460938 246.152344 165.847656 252.90625 162.226562 C 257.179688 159.9375 259.449219 159.511719 261.78125 160.5625 C 265.785156 162.363281 267.664062 161.550781 265.863281 158.792969 C 264.121094 156.128906 270.777344 151.96875 276.109375 152.390625 C 278.652344 152.589844 279.851562 152.09375 280.441406 150.589844 C 281.5 147.886719 287.542969 145.261719 290.261719 146.324219 C 291.503906 146.808594 292.910156 146.371094 293.660156 145.257812 C 295.769531 142.144531 302.402344 139.433594 307.164062 139.742188 C 310.664062 139.96875 311.476562 139.664062 310.910156 138.332031 C 310.066406 136.339844 322.320312 123.777344 325.914062 122.960938 C 330.714844 121.863281 332.011719 127.570312 328.710938 135.253906 C 322.652344 149.351562 319.929688 152.738281 316.972656 149.84375 C 316.203125 149.09375 316.175781 149.996094 316.902344 151.84375 C 317.628906 153.695312 318.0625 156.03125 317.863281 157.03125 C 317.175781 160.488281 311.101562 170.164062 309.058594 171.058594 C 307.929688 171.550781 307.285156 173.601562 307.621094 175.609375 C 307.960938 177.621094 307.066406 181.03125 305.636719 183.1875 C 304.207031 185.339844 300.878906 192.515625 298.238281 199.128906 C 295.597656 205.746094 292.984375 210.980469 292.429688 210.761719 C 291.878906 210.546875 290.007812 208.316406 288.277344 205.8125 L 285.132812 201.253906 L 287.605469 207.320312 C 289.863281 212.851562 289.699219 214.351562 285.742188 224.3125 C 283.355469 230.320312 280.972656 235.421875 280.445312 235.652344 C 279.921875 235.882812 278.714844 234.457031 277.769531 232.484375 C 276.324219 229.484375 276.1875 229.90625 276.929688 235.078125 C 278.394531 245.269531 273.804688 253.734375 269.660156 248.484375 C 268.140625 246.558594 267.617188 247.074219 265.140625 252.890625 C 260.972656 262.695312 258.816406 262.351562 252.742188 250.917969 L 247.644531 241.328125 L 251.191406 250.078125 C 255.785156 261.421875 255.039062 265.707031 247.921875 268.820312 C 243.792969 270.628906 242.175781 270.625 240.421875 268.808594 C 238.414062 266.722656 238.105469 266.777344 237.367188 269.355469 C 236.875 271.054688 234.488281 273.121094 231.511719 274.421875 C 223.796875 277.800781 221.867188 277.429688 219.347656 272.082031 L 217.097656 267.316406 L 217.988281 272.203125 C 218.480469 274.890625 218.585938 277.808594 218.230469 278.691406 C 217.082031 281.527344 211.699219 284.703125 208.6875 284.324219 Z M 234.917969 253.207031 C 232.40625 247.46875 230.011719 243.519531 229.246094 243.855469 C 227.816406 244.480469 233.660156 258.976562 236.5 261.855469 C 239.636719 265.027344 239.308594 263.242188 234.917969 253.207031 Z M 157.464844 265.6875 C 155.527344 264.347656 154.882812 265.039062 155.898438 267.367188 C 156.394531 268.5 157.246094 268.789062 157.785156 268.007812 C 158.324219 267.226562 158.179688 266.183594 157.464844 265.6875 Z M 235.667969 194.261719 C 228.179688 188.011719 229.023438 191.984375 236.648438 198.871094 C 240.488281 202.339844 242.300781 203.277344 241.960938 201.609375 C 241.675781 200.21875 238.84375 196.914062 235.667969 194.261719 Z M 176.046875 181.242188 C 173.390625 180.085938 169.957031 179.855469 168.011719 180.707031 C 162.519531 183.109375 156.734375 179.019531 152.316406 169.609375 C 150.152344 164.992188 149.21875 163.652344 150.113281 166.445312 C 153.832031 178.054688 152.53125 181.523438 145.964844 177.519531 C 143.078125 175.761719 142.628906 175.859375 141.609375 178.46875 C 140.597656 181.058594 139.75 181.4375 133.941406 181.90625 C 128.855469 182.316406 126.492188 183.210938 123.25 185.960938 C 116.691406 191.523438 115.277344 191.648438 111.207031 187.023438 C 105.183594 180.183594 103.914062 180.773438 108.238281 188.40625 C 112.113281 195.246094 112.140625 195.554688 109.121094 197.890625 C 105.359375 200.796875 101.136719 199.921875 99.363281 195.863281 C 98.664062 194.269531 96.875 192.257812 95.378906 191.386719 C 93.035156 190.023438 93.046875 190.492188 95.457031 194.824219 C 100.050781 203.082031 97.414062 210.503906 90.800781 207.917969 C 89.109375 207.253906 88.609375 207.660156 88.699219 209.625 C 88.886719 213.746094 85.980469 213.894531 80.183594 210.066406 C 73.863281 205.886719 71.949219 207.144531 74.78125 213.613281 L 76.808594 218.25 L 70.082031 221.667969 C 64.492188 224.507812 62.878906 224.757812 60.53125 223.148438 C 57.921875 221.367188 57.589844 221.460938 56.289062 224.351562 C 55.242188 226.683594 54.261719 227.316406 52.492188 226.804688 C 50.726562 226.296875 48.441406 227.722656 43.683594 232.292969 C 38.238281 237.527344 36.953125 238.257812 35.238281 237.105469 C 32.835938 235.492188 32.5625 233.058594 33.945312 225.574219 C 34.734375 221.296875 35.929688 219.585938 39.105469 218.1875 C 43.382812 216.304688 49.710938 205.007812 48.296875 201.773438 C 47.367188 199.648438 52.386719 194.664062 58.75 191.398438 C 62.863281 189.285156 63.742188 188.15625 63.109375 185.796875 C 62.140625 182.195312 66.1875 175.085938 71.199219 171.582031 C 73.3125 170.109375 74.765625 167.789062 74.59375 166.167969 C 74.429688 164.605469 75.148438 162.957031 76.191406 162.5 C 77.234375 162.042969 77.828125 161.074219 77.507812 160.34375 C 76.089844 157.101562 82.15625 157.15625 86.335938 160.429688 C 90.894531 164 93.558594 164.464844 92.132812 161.441406 C 91.710938 160.542969 89.859375 158.6875 88.019531 157.324219 C 82.972656 153.570312 82.957031 152.574219 87.863281 145.242188 C 94.644531 135.105469 96.613281 132.964844 99.285156 132.84375 C 100.625 132.78125 101.429688 132.070312 101.078125 131.265625 C 99.988281 128.777344 102.53125 128.695312 105.515625 131.128906 C 108.097656 133.230469 108.117188 133.09375 105.753906 129.554688 C 103.707031 126.488281 103.585938 125.128906 105.1875 123.097656 C 110.144531 116.796875 112.578125 115.25 117.050781 115.546875 C 122.589844 115.910156 122.734375 115.84375 121.667969 113.40625 C 120.675781 111.144531 123.867188 109.234375 126.082031 110.761719 C 127.097656 111.464844 127.886719 111.101562 128.648438 109.578125 C 132.203125 102.507812 140.847656 102.34375 146.332031 109.242188 C 149.4375 113.148438 149.691406 113.238281 148.410156 109.988281 C 146.699219 105.640625 149.742188 103.476562 152.75 106.90625 C 153.847656 108.160156 155.898438 108.683594 157.308594 108.066406 C 158.851562 107.390625 160.28125 107.863281 160.910156 109.253906 C 161.761719 111.128906 162.183594 110.726562 163.183594 107.074219 C 163.863281 104.609375 164.378906 100.933594 164.335938 98.910156 C 164.273438 96.015625 165.011719 95.101562 167.785156 94.636719 C 169.726562 94.308594 171.261719 93.375 171.191406 92.558594 C 171.125 91.738281 172.835938 89.839844 174.996094 88.332031 C 178.414062 85.945312 179.082031 85.945312 180.121094 88.324219 C 180.78125 89.832031 180.886719 91.691406 180.355469 92.460938 C 179.148438 94.203125 180.0625 96.53125 181.671875 95.828125 C 182.332031 95.539062 182.707031 93.242188 182.515625 90.726562 C 182.085938 85.175781 186.480469 82.484375 190.003906 86.140625 C 191.378906 87.566406 192.429688 87.8125 192.582031 86.742188 C 192.917969 84.386719 207.6875 82.882812 208.679688 85.101562 C 209.066406 85.96875 209.058594 89.34375 208.664062 92.605469 C 208.269531 95.863281 208.5625 98.261719 209.3125 97.933594 C 210.0625 97.605469 210.542969 96.070312 210.382812 94.519531 C 210.21875 92.96875 210.789062 90.132812 211.652344 88.214844 C 213.144531 84.902344 213.558594 84.714844 220.199219 84.398438 C 225.234375 84.160156 227.496094 84.796875 228.328125 86.695312 C 229.230469 88.757812 229.988281 88.875 231.855469 87.238281 C 233.429688 85.859375 235.582031 85.601562 238.230469 86.484375 C 240.429688 87.214844 246.445312 87.964844 251.59375 88.144531 C 256.746094 88.324219 262.121094 89.269531 263.542969 90.242188 C 264.964844 91.214844 267.054688 91.601562 268.191406 91.105469 C 270.890625 89.921875 274.578125 91.421875 275.789062 94.1875 C 276.511719 95.835938 277.535156 95.851562 279.859375 94.257812 C 282.28125 92.597656 283.402344 92.675781 284.9375 94.621094 C 286.019531 95.996094 287.789062 96.730469 288.863281 96.261719 C 289.9375 95.789062 291.65625 96.464844 292.679688 97.765625 C 293.71875 99.078125 296.246094 99.808594 298.386719 99.417969 C 300.5 99.027344 304.289062 99.363281 306.808594 100.160156 C 309.324219 100.957031 313.453125 101.90625 315.980469 102.269531 C 321.253906 103.023438 328.320312 108.207031 328.46875 111.421875 C 328.617188 114.675781 316.945312 119.453125 313.601562 117.507812 C 311.496094 116.28125 309.011719 116.929688 300.351562 120.980469 C 291.742188 125 289.527344 125.585938 288.84375 124.015625 C 288.375 122.949219 288.429688 121.449219 288.960938 120.679688 C 289.492188 119.910156 289.613281 118.570312 289.230469 117.707031 C 288.847656 116.839844 287.457031 119.265625 286.144531 123.09375 C 283.65625 130.355469 280.625 132.730469 274.5625 132.1875 C 272.589844 132.011719 269.703125 132.613281 268.152344 133.527344 C 265.96875 134.8125 265.035156 134.523438 264.039062 132.242188 C 262.824219 129.46875 262.660156 129.488281 261.285156 132.542969 C 259.585938 136.316406 255.140625 138.566406 248.335938 139.089844 C 242.570312 139.535156 240.816406 136.570312 241.363281 127.304688 C 241.847656 119.082031 241.601562 118.75 239.488281 124.820312 C 238.527344 127.582031 238.089844 130.640625 238.515625 131.613281 C 240.21875 135.507812 237.066406 141.035156 231.066406 144.675781 L 225.027344 148.335938 L 221.625 139.328125 C 219.753906 134.375 217.898438 130.464844 217.5 130.644531 C 217.097656 130.820312 217.582031 134.792969 218.574219 139.472656 C 220.660156 149.324219 220.054688 151.105469 213.089844 155.578125 L 207.964844 158.871094 L 203.390625 146.875 C 199.855469 137.601562 199.070312 136.199219 199.929688 140.703125 C 200.539062 143.90625 202.453125 149.851562 204.179688 153.910156 C 207.726562 162.25 207.230469 165.816406 202.582031 165.449219 C 200.679688 165.296875 198.828125 163.65625 197.566406 161.011719 L 195.566406 156.8125 L 196.421875 161.527344 C 197.773438 168.980469 196.234375 174.933594 192.707031 175.914062 C 189.878906 176.699219 189.261719 175.972656 185.074219 166.925781 C 178.480469 152.6875 178.371094 152.503906 176.972656 153.113281 C 176.265625 153.425781 178.050781 159.519531 180.964844 166.753906 C 185.957031 179.132812 186.089844 179.921875 183.460938 181.546875 C 181.71875 182.625 178.964844 182.511719 176.046875 181.242188 Z M 164.226562 161.421875 C 163.472656 160.683594 163.65625 161.859375 164.640625 164.03125 C 165.625 166.207031 166.242188 166.808594 166.015625 165.375 C 165.785156 163.9375 164.980469 162.160156 164.226562 161.421875 Z M 87.949219 185.863281 C 87.128906 185.296875 85.824219 185.109375 85.050781 185.449219 C 84.171875 185.832031 84.605469 186.550781 86.199219 187.351562 C 88.976562 188.746094 90.382812 187.546875 87.949219 185.863281 Z M 129.039062 120.863281 C 128.40625 120.617188 128.433594 121.535156 129.101562 122.90625 C 129.84375 124.421875 130.292969 124.597656 130.253906 123.355469 C 130.21875 122.234375 129.671875 121.113281 129.039062 120.863281 Z M 129.039062 120.863281 " fill-opacity="1" fill-rule="nonzero"/></svg>